<svg width="63" height="33" viewBox="0 0 63 33" fill="none" xmlns="http://www.w3.org/2000/svg">
<path d="M3.10874 9.36011L6.3056 9.3591C6.38879 9.35907 6.47199 9.36499 6.55518 9.3709L6.55446 7.07724C6.55445 7.04159 6.5574 7.00891 6.56037 6.97622C6.58692 6.37903 6.83929 5.84119 7.23135 5.44888C7.64716 5.03281 8.22347 4.77711 8.85928 4.77691L12.0561 4.7759C12.1393 4.77588 12.2225 4.78179 12.3057 4.78771L12.305 2.49404C12.3048 1.85824 12.5661 1.28177 12.9819 0.865686C13.3977 0.449607 13.974 0.193914 14.6068 0.190743L17.8037 0.189736C18.4395 0.189535 19.016 0.450806 19.4321 0.866624C19.8511 1.28541 20.1098 1.85875 20.11 2.49455L20.1188 30.5473C20.119 31.1832 19.8578 31.7596 19.4419 32.1757C19.0231 32.5948 18.4498 32.8534 17.814 32.8536L14.6171 32.8546C14.5815 32.8546 14.5488 32.8517 14.5161 32.8487C13.9189 32.8222 13.3811 32.5698 12.9888 32.1777C12.5727 31.7619 12.317 31.1856 12.3138 30.5528L12.3132 28.6097C12.233 28.6186 12.1498 28.6246 12.0666 28.6246L8.86977 28.6256C8.83411 28.6257 8.80143 28.6227 8.76875 28.6197C8.1775 28.5932 7.63965 28.3408 7.24438 27.9458C6.82533 27.527 6.56666 26.9537 6.56943 26.3208L6.5686 23.6706C6.48838 23.6796 6.4052 23.6855 6.31903 23.6826L3.12217 23.6836C2.48636 23.6838 1.90989 23.4225 1.49381 23.0067C1.07773 22.5909 0.816094 22.0146 0.815894 21.3788L0.800949 11.6694C0.80075 11.0335 1.05905 10.4541 1.47487 10.038C1.89365 9.61897 2.46996 9.36328 3.10874 9.36011ZM48.3974 2.22715L45.2005 2.22816L45.1708 2.22817C45.1144 2.2371 45.0639 2.26385 45.0253 2.30249C44.9807 2.34707 44.951 2.41244 44.9511 2.47781L44.9599 30.5306C44.9599 30.596 44.9867 30.6584 45.0342 30.7059C45.0788 30.7504 45.1442 30.7801 45.2095 30.7801L48.4064 30.7791L48.4361 30.7791C48.4896 30.7731 48.5431 30.7434 48.5817 30.7048C48.6292 30.6572 48.6589 30.5978 48.6589 30.5324L48.6575 26.2957L48.6455 7.06694L48.6441 2.47961C48.6441 2.41425 48.6173 2.35187 48.5698 2.30434C48.5252 2.25385 48.4628 2.22713 48.3974 2.22715ZM38.6832 15.288C39.4794 15.2878 40.1273 15.9353 40.1305 16.7345C40.1308 17.5307 39.4833 18.1786 38.6841 18.1819L24.6666 18.1803C23.8704 18.1806 23.2225 17.5331 23.2192 16.7339C23.219 15.9376 23.8665 15.2897 24.6657 15.2865L38.6832 15.288ZM59.9013 11.4011L56.7044 11.4022C56.6331 11.4022 56.5707 11.4289 56.5262 11.4735C56.4876 11.5121 56.4638 11.5597 56.4549 11.6161L56.4549 11.6518L56.458 21.3494L56.458 21.3791C56.464 21.4325 56.4937 21.4801 56.5323 21.5187C56.5769 21.5632 56.6423 21.5929 56.7076 21.5929L59.9045 21.5919C59.9758 21.5919 60.0382 21.5651 60.0828 21.5205C60.1273 21.476 60.157 21.4106 60.157 21.3452L60.1509 11.6506C60.1509 11.5853 60.1242 11.5229 60.0766 11.4754C60.0291 11.4278 59.9667 11.4011 59.9013 11.4011ZM56.7068 9.3432L59.9036 9.3422C60.5394 9.342 61.1159 9.60327 61.532 10.0191C61.9481 10.4349 62.2097 11.0112 62.2099 11.647L62.2129 21.3446C62.2131 21.9744 61.9548 22.5539 61.5361 22.967C61.1173 23.386 60.541 23.6477 59.9111 23.6479L56.7142 23.6489C56.631 23.6489 56.5478 23.643 56.4647 23.6371L56.4655 26.2873C56.4657 26.9231 56.2044 27.4995 55.7886 27.9156C55.3698 28.3347 54.7935 28.5904 54.1607 28.5935L50.9638 28.5945C50.8806 28.5946 50.7974 28.5887 50.7172 28.5798L50.7178 30.5228C50.718 31.1587 50.4597 31.7322 50.0439 32.1482C49.6489 32.5435 49.1112 32.7962 48.517 32.8202C48.4843 32.8232 48.4516 32.8261 48.416 32.8261L45.2191 32.8272C44.5833 32.8274 44.0068 32.5661 43.5907 32.1503C43.1717 31.7315 42.916 31.1552 42.9128 30.5223L42.8951 2.47845C42.8949 1.84265 43.1532 1.26321 43.569 0.847128C43.964 0.451851 44.5017 0.199142 45.0959 0.175185C45.1286 0.172204 45.1613 0.169222 45.1969 0.169212L48.3938 0.168204C49.0296 0.168003 49.6031 0.426304 50.0192 0.842123C50.4382 1.26091 50.6939 1.83722 50.6971 2.47005L50.6978 4.76371C50.778 4.75478 50.8612 4.74881 50.9474 4.75175L54.1442 4.75074C54.7801 4.75054 55.3595 5.00884 55.7756 5.42466C56.1946 5.84345 56.4503 6.41976 56.4505 7.05556L56.4512 9.34922C56.5404 9.3492 56.6236 9.34323 56.7068 9.3432ZM54.1479 6.81563L50.951 6.81664C50.8856 6.81666 50.8233 6.84342 50.7757 6.89097C50.7312 6.93555 50.7015 6.99498 50.7015 7.06035L50.7015 7.06629L50.7076 26.295C50.7076 26.3604 50.7344 26.4228 50.7819 26.4703C50.8295 26.5178 50.8889 26.5475 50.9542 26.5475L54.1511 26.5465C54.2165 26.5465 54.2789 26.5197 54.3264 26.4721C54.3709 26.4276 54.4006 26.3622 54.4006 26.2968L54.3991 21.3589L54.3975 7.06512C54.3975 6.99976 54.3678 6.93441 54.3232 6.88985C54.2756 6.84233 54.2162 6.81264 54.1479 6.81563ZM14.3594 7.07775L14.3655 26.3065L14.3668 30.5313C14.3669 30.5967 14.3996 30.6591 14.4441 30.7036C14.4828 30.7422 14.5333 30.769 14.5897 30.7779L14.6195 30.7779L17.8163 30.7768C17.8817 30.7768 17.9441 30.7501 17.9916 30.7025C18.0361 30.6579 18.0658 30.5926 18.0658 30.5272L18.051 2.48629C18.051 2.42093 18.0243 2.35854 17.9767 2.31102C17.9321 2.26647 17.8667 2.23678 17.8014 2.2368L14.6045 2.23781C14.5392 2.23783 14.4768 2.27053 14.4322 2.31511C14.3877 2.35969 14.358 2.42506 14.358 2.49043L14.3594 7.07775ZM12.3066 26.3398L12.3066 26.3101L12.3005 7.07543L12.3005 7.03978C12.2916 6.98333 12.2678 6.9358 12.2291 6.89719C12.1846 6.85264 12.1222 6.82592 12.0508 6.82594L8.85398 6.82695C8.78862 6.82697 8.72624 6.85967 8.68169 6.90425C8.64307 6.94288 8.61635 6.9934 8.60745 7.04985L8.60746 7.07956L8.60891 11.6669L8.61196 21.3644L8.61352 26.3083C8.61355 26.3796 8.64328 26.439 8.68785 26.4836C8.72649 26.5222 8.77701 26.5489 8.83346 26.5578L8.86317 26.5578L12.06 26.5568C12.1254 26.5568 12.1878 26.5241 12.2323 26.4795C12.2709 26.4408 12.2977 26.3903 12.3066 26.3398ZM6.30328 11.418L3.10642 11.4191C3.04105 11.4191 2.97867 11.4458 2.93115 11.4934C2.88363 11.5409 2.85691 11.6033 2.85693 11.6687L2.85998 21.3663C2.86 21.4316 2.88676 21.494 2.93431 21.5415C2.97889 21.5861 3.04427 21.6158 3.10963 21.6157L6.3065 21.6147C6.37186 21.6147 6.43424 21.588 6.48177 21.5404C6.52929 21.4929 6.55601 21.4305 6.55599 21.3651L6.54996 11.6646L6.54996 11.6586C6.54994 11.5933 6.52021 11.5339 6.47563 11.4893C6.43105 11.4447 6.36865 11.418 6.30328 11.418Z" fill="black"/>
</svg>
