<svg width="34" height="34" viewBox="0 0 34 34" fill="none" xmlns="http://www.w3.org/2000/svg">
<path d="M28.3808 29.5721H5.58142C2.60662 29.5721 0.186768 27.1522 0.186768 24.1774V9.78412C0.186768 6.80969 2.60699 4.38947 5.58142 4.38947H28.3808C31.3552 4.38947 33.775 6.80969 33.775 9.78412V24.1774C33.775 27.1522 31.3552 29.5721 28.3808 29.5721ZM5.58142 5.967C3.47655 5.967 1.7643 7.67925 1.7643 9.78412V24.1774C1.7643 26.2823 3.47655 27.9949 5.58142 27.9949H28.3808C30.4856 27.9949 32.1979 26.2823 32.1979 24.1774V9.78412C32.1979 7.67925 30.4856 5.967 28.3808 5.967H5.58142Z" fill="#1D1D1B"/>
<path d="M4.30843 9.85915C8.34051 13.7882 12.3726 17.7169 16.4047 21.646C17.1563 22.3783 18.3099 21.2273 17.5571 20.4936C13.5251 16.5649 9.49297 12.6358 5.46088 8.70708C4.70925 7.97448 3.55568 9.12581 4.30843 9.85915Z" fill="#1D1D1B"/>
<path d="M17.5571 21.646C21.5892 17.7173 25.6213 13.7882 29.6533 9.85948C30.4057 9.12613 29.2529 7.97443 28.5009 8.70703C24.4688 12.6357 20.4367 16.5648 16.4046 20.4935C15.6523 21.2269 16.8051 22.3786 17.5571 21.646Z" fill="#1D1D1B"/>
<path d="M29.609 24.4271C26.9261 21.8826 24.2427 19.3385 21.5598 16.794C20.7988 16.0726 19.6445 17.2228 20.4073 17.9465C23.0903 20.491 25.7736 23.0351 28.4566 25.5796C29.2175 26.301 30.3718 25.1504 29.609 24.4271Z" fill="#1D1D1B"/>
<path d="M5.5781 25.5792C8.26106 23.0347 10.9444 20.4906 13.6273 17.9461C14.3898 17.2228 13.2362 16.0719 12.4749 16.7936C9.79193 19.3381 7.1086 21.8823 4.42565 24.4267C3.66319 25.15 4.81676 26.3014 5.5781 25.5792Z" fill="#1D1D1B"/>
</svg>
