<svg width="41" height="40" viewBox="0 0 41 40" fill="none" xmlns="http://www.w3.org/2000/svg">
<path d="M37.3806 30.4135L29.0388 22.2752C28.773 22.0159 28.3419 22.0159 28.0762 22.2752L24.9288 25.3458C23.3283 24.0043 21.6066 22.436 19.8032 20.6766C18.0004 18.9177 16.3933 17.2376 15.0185 15.6747L18.1646 12.6053C18.4304 12.346 18.4304 11.9255 18.1646 11.6662L9.82281 3.52781C9.69522 3.40333 9.52212 3.33334 9.34154 3.33334C9.16096 3.33334 8.98786 3.40333 8.8602 3.52781L3.75836 8.50535C3.71852 8.54422 3.68382 8.58777 3.65499 8.63491C3.53381 8.83334 2.98774 9.95808 4.1436 12.6217C5.6111 16.0035 9.1276 20.4231 14.5953 25.7574C20.0838 31.1121 24.6203 34.549 28.0788 35.9727C29.3924 36.5134 30.3388 36.6667 30.9899 36.6667C31.6918 36.6666 32.0504 36.4884 32.1552 36.4254C32.2 36.3984 32.2415 36.3664 32.2787 36.33L37.3806 31.3526C37.6464 31.0933 37.6464 30.6728 37.3806 30.4135ZM31.4157 35.2937C30.891 35.4244 26.9111 35.8947 15.5579 24.8183C4.26192 13.7979 4.69321 9.87429 4.82453 9.3433L9.34154 4.93647L16.7207 12.1357L13.612 15.1686C13.3622 15.4123 13.3451 15.802 13.5726 16.0658C15.058 17.7873 16.8304 19.6545 18.8405 21.6156C20.8512 23.5772 22.7645 25.3068 24.5273 26.7563C24.7975 26.9785 25.1972 26.9619 25.4473 26.718L28.5574 23.6837L35.9367 30.883L31.4157 35.2937Z" fill="#59B462" stroke="#1E241E" stroke-opacity="0.96" stroke-width="1.54" stroke-linecap="round" stroke-linejoin="round"/>
<path d="M35.5756 9.17078H31.6001V5.29227C31.6001 4.92554 31.2954 4.6282 30.9195 4.6282H25.9385C25.5626 4.6282 25.2578 4.92547 25.2578 5.29227V9.17078H21.2823C20.9064 9.17078 20.6017 9.46805 20.6017 9.83484V14.6943C20.6017 15.0611 20.9064 15.3584 21.2823 15.3584H25.2578V19.2369C25.2578 19.6037 25.5625 19.9009 25.9385 19.9009H30.9195C31.2954 19.9009 31.6001 19.6037 31.6001 19.2369V15.3584H35.5756C35.9515 15.3584 36.2563 15.0611 36.2563 14.6943V9.83478C36.2563 9.46805 35.9515 9.17078 35.5756 9.17078ZM34.895 14.0303H30.9195C30.5436 14.0303 30.2388 14.3276 30.2388 14.6943V18.5728H26.6191V14.6943C26.6191 14.3276 26.3144 14.0303 25.9385 14.0303H21.963V10.4988H25.9385C26.3144 10.4988 26.6191 10.2016 26.6191 9.83478V5.95626H30.2388V9.83478C30.2388 10.2015 30.5435 10.4988 30.9195 10.4988H34.895V14.0303Z" fill="#59B462" stroke="#1E241E" stroke-opacity="0.96" stroke-width="1.54" stroke-linecap="round" stroke-linejoin="round"/>
<path d="M13.8343 10.4337L13.494 10.1017C13.2282 9.8424 12.7972 9.8424 12.5314 10.1017C12.2656 10.3611 12.2656 10.7815 12.5314 11.0408L12.8717 11.3728C13.0046 11.5025 13.1788 11.5673 13.353 11.5673C13.5271 11.5673 13.7013 11.5025 13.8343 11.3728C14.1001 11.1135 14.1001 10.693 13.8343 10.4337Z" fill="#59B462" stroke="#1E241E" stroke-opacity="0.96" stroke-width="1.54" stroke-linecap="round" stroke-linejoin="round"/>
<path d="M11.9286 8.57442L9.81863 6.51589C9.55277 6.25658 9.12181 6.25651 8.85602 6.51589C8.59023 6.77526 8.59023 7.19571 8.85602 7.45501L10.9659 9.51348C11.0988 9.64317 11.273 9.70794 11.4472 9.70794C11.6214 9.70794 11.7956 9.64317 11.9286 9.51348C12.1943 9.25417 12.1943 8.83373 11.9286 8.57442Z" fill="#59B462" stroke="#1E241E" stroke-opacity="0.96" stroke-width="1.54" stroke-linecap="round" stroke-linejoin="round"/>
<path d="M37.3806 30.4135L29.0388 22.2752C28.773 22.0159 28.3419 22.0159 28.0762 22.2752L24.9288 25.3458C23.3283 24.0043 21.6066 22.436 19.8032 20.6766C18.0004 18.9177 16.3933 17.2376 15.0185 15.6747L18.1646 12.6053C18.4304 12.346 18.4304 11.9255 18.1646 11.6662L9.82281 3.52781C9.69522 3.40333 9.52212 3.33334 9.34154 3.33334C9.16096 3.33334 8.98786 3.40333 8.8602 3.52781L3.75836 8.50535C3.71852 8.54422 3.68382 8.58777 3.65499 8.63491C3.53381 8.83334 2.98774 9.95808 4.1436 12.6217C5.6111 16.0035 9.1276 20.4231 14.5953 25.7574C20.0838 31.1121 24.6203 34.549 28.0788 35.9727C29.3924 36.5134 30.3388 36.6667 30.9899 36.6667C31.6918 36.6666 32.0504 36.4884 32.1552 36.4254C32.2 36.3984 32.2415 36.3664 32.2787 36.33L37.3806 31.3526C37.6464 31.0933 37.6464 30.6728 37.3806 30.4135ZM31.4157 35.2937C30.891 35.4244 26.9111 35.8947 15.5579 24.8183C4.26192 13.7979 4.69321 9.87429 4.82453 9.3433L9.34154 4.93647L16.7207 12.1357L13.612 15.1686C13.3622 15.4123 13.3451 15.802 13.5726 16.0658C15.058 17.7873 16.8304 19.6545 18.8405 21.6156C20.8512 23.5772 22.7645 25.3068 24.5273 26.7563C24.7975 26.9785 25.1972 26.9619 25.4473 26.718L28.5574 23.6837L35.9367 30.883L31.4157 35.2937Z" fill="#59B462" stroke="#59B462" stroke-width="0.5"/>
<path d="M35.5756 9.17078H31.6001V5.29227C31.6001 4.92554 31.2954 4.6282 30.9195 4.6282H25.9385C25.5626 4.6282 25.2578 4.92547 25.2578 5.29227V9.17078H21.2823C20.9064 9.17078 20.6017 9.46805 20.6017 9.83484V14.6943C20.6017 15.0611 20.9064 15.3584 21.2823 15.3584H25.2578V19.2369C25.2578 19.6037 25.5625 19.9009 25.9385 19.9009H30.9195C31.2954 19.9009 31.6001 19.6037 31.6001 19.2369V15.3584H35.5756C35.9515 15.3584 36.2563 15.0611 36.2563 14.6943V9.83478C36.2563 9.46805 35.9515 9.17078 35.5756 9.17078ZM34.895 14.0303H30.9195C30.5436 14.0303 30.2388 14.3276 30.2388 14.6943V18.5728H26.6191V14.6943C26.6191 14.3276 26.3144 14.0303 25.9385 14.0303H21.963V10.4988H25.9385C26.3144 10.4988 26.6191 10.2016 26.6191 9.83478V5.95626H30.2388V9.83478C30.2388 10.2015 30.5435 10.4988 30.9195 10.4988H34.895V14.0303Z" fill="#59B462" stroke="#59B462" stroke-width="0.5"/>
<path d="M13.8343 10.4337L13.494 10.1017C13.2282 9.8424 12.7972 9.8424 12.5314 10.1017C12.2656 10.3611 12.2656 10.7815 12.5314 11.0408L12.8717 11.3728C13.0046 11.5025 13.1788 11.5673 13.353 11.5673C13.5271 11.5673 13.7013 11.5025 13.8343 11.3728C14.1001 11.1135 14.1001 10.693 13.8343 10.4337Z" fill="#59B462" stroke="#59B462" stroke-width="0.5"/>
<path d="M11.9286 8.57442L9.81863 6.51589C9.55277 6.25658 9.12181 6.25651 8.85602 6.51589C8.59023 6.77526 8.59023 7.19571 8.85602 7.45501L10.9659 9.51348C11.0988 9.64317 11.273 9.70794 11.4472 9.70794C11.6214 9.70794 11.7956 9.64317 11.9286 9.51348C12.1943 9.25417 12.1943 8.83373 11.9286 8.57442Z" fill="#59B462" stroke="#59B462" stroke-width="0.5"/>
</svg>
