<svg width="42" height="43" viewBox="0 0 42 43" fill="none" xmlns="http://www.w3.org/2000/svg">
<g filter="url(#filter0_d_115_408)">
<path d="M20.9792 0.166626C9.47919 0.166626 0.166687 9.49996 0.166687 21C0.166687 32.5 9.47919 41.8333 20.9792 41.8333C32.5 41.8333 41.8333 32.5 41.8333 21C41.8333 9.49996 32.5 0.166626 20.9792 0.166626ZM35.4167 12.6666H29.2708C28.6042 10.0625 27.6458 7.56246 26.3958 5.24996C30.2292 6.56246 33.4167 9.22913 35.4167 12.6666ZM21 4.41663C22.7292 6.91663 24.0833 9.68746 24.9792 12.6666H17.0209C17.9167 9.68746 19.2709 6.91663 21 4.41663ZM4.87502 25.1666C4.54169 23.8333 4.33335 22.4375 4.33335 21C4.33335 19.5625 4.54169 18.1666 4.87502 16.8333H11.9167C11.75 18.2083 11.625 19.5833 11.625 21C11.625 22.4166 11.75 23.7916 11.9167 25.1666H4.87502ZM6.58335 29.3333H12.7292C13.3959 31.9375 14.3542 34.4375 15.6042 36.75C11.7709 35.4375 8.58335 32.7916 6.58335 29.3333ZM12.7292 12.6666H6.58335C8.58335 9.20829 11.7709 6.56246 15.6042 5.24996C14.3542 7.56246 13.3959 10.0625 12.7292 12.6666ZM21 37.5833C19.2709 35.0833 17.9167 32.3125 17.0209 29.3333H24.9792C24.0833 32.3125 22.7292 35.0833 21 37.5833ZM25.875 25.1666H16.125C15.9375 23.7916 15.7917 22.4166 15.7917 21C15.7917 19.5833 15.9375 18.1875 16.125 16.8333H25.875C26.0625 18.1875 26.2083 19.5833 26.2083 21C26.2083 22.4166 26.0625 23.7916 25.875 25.1666ZM26.3958 36.75C27.6458 34.4375 28.6042 31.9375 29.2708 29.3333H35.4167C33.4167 32.7708 30.2292 35.4375 26.3958 36.75ZM30.0834 25.1666C30.25 23.7916 30.375 22.4166 30.375 21C30.375 19.5833 30.25 18.2083 30.0834 16.8333H37.125C37.4583 18.1666 37.6667 19.5625 37.6667 21C37.6667 22.4375 37.4583 23.8333 37.125 25.1666H30.0834Z" fill="url(#paint0_linear_115_408)"/>
<path d="M35.4167 12.8166H35.6775L35.5463 12.5912C33.5286 9.12315 30.3126 6.43248 26.4444 5.10805L26.0814 4.98376L26.2639 5.32129C27.5077 7.62226 28.4617 10.1107 29.1255 12.7038L29.1544 12.8166H29.2708H35.4167ZM21.1234 4.3313L21 4.15294L20.8767 4.3313C19.1388 6.84384 17.7777 9.62884 16.8772 12.6234L16.8191 12.8166H17.0209H24.9792H25.1809L25.1228 12.6234C24.2224 9.62884 22.8612 6.84384 21.1234 4.3313ZM4.7295 25.203L4.7579 25.3166H4.87502H11.9167H12.086L12.0656 25.1486C11.8993 23.7763 11.775 22.408 11.775 21C11.775 19.5919 11.8993 18.2236 12.0656 16.8513L12.086 16.6833H11.9167H4.87502H4.7579L4.7295 16.7969C4.39378 18.1398 4.18335 19.548 4.18335 21C4.18335 22.4519 4.39378 23.8601 4.7295 25.203ZM6.58335 29.1833H6.32333L6.4535 29.4084C8.47151 32.8979 11.6878 35.5676 15.5556 36.8919L15.9186 37.0162L15.7361 36.6786C14.4924 34.3777 13.5383 31.8892 12.8745 29.2961L12.8456 29.1833H12.7292H6.58335ZM12.7292 12.8166H12.8456L12.8745 12.7038C13.5383 10.1107 14.4924 7.62226 15.7361 5.32129L15.9186 4.98376L15.5556 5.10805C11.6878 6.43236 8.47151 9.10206 6.4535 12.5915L6.32333 12.8166H6.58335H12.7292ZM20.8767 37.6686L21 37.847L21.1234 37.6686C22.8612 35.1561 24.2224 32.3711 25.1228 29.3765L25.1809 29.1833H24.9792H17.0209H16.8191L16.8772 29.3765C17.7777 32.3711 19.1388 35.1561 20.8767 37.6686ZM25.875 25.3166H26.006L26.0236 25.1869C26.2115 23.8093 26.3583 22.4266 26.3583 21C26.3583 19.5734 26.2115 18.1699 26.0236 16.8127L26.0057 16.6833H25.875H16.125H15.9944L15.9764 16.8127C15.7885 18.1699 15.6417 19.5734 15.6417 21C15.6417 22.4266 15.7885 23.8093 15.9764 25.1869L15.9941 25.3166H16.125H25.875ZM26.2639 36.6786L26.0814 37.0162L26.4444 36.8919C30.3126 35.5674 33.5286 32.8768 35.5463 29.4087L35.6775 29.1833H35.4167H29.2708H29.1544L29.1255 29.2961C28.4617 31.8892 27.5077 34.3777 26.2639 36.6786ZM29.9344 25.1486L29.9141 25.3166H30.0834H37.125H37.2421L37.2705 25.203C37.6063 23.8601 37.8167 22.4519 37.8167 21C37.8167 19.548 37.6063 18.1398 37.2705 16.7969L37.2421 16.6833H37.125H30.0834H29.9141L29.9344 16.8513C30.1008 18.2236 30.225 19.5919 30.225 21C30.225 22.408 30.1008 23.7763 29.9344 25.1486ZM0.316687 21C0.316687 9.58261 9.56222 0.316626 20.9792 0.316626C32.4173 0.316626 41.6833 9.5829 41.6833 21C41.6833 32.417 32.4173 41.6833 20.9792 41.6833C9.56222 41.6833 0.316687 32.4173 0.316687 21Z" stroke="black" stroke-width="0.3"/>
</g>
<defs>
<filter id="filter0_d_115_408" x="0.166687" y="0.166626" width="41.6667" height="42.5666" filterUnits="userSpaceOnUse" color-interpolation-filters="sRGB">
<feFlood flood-opacity="0" result="BackgroundImageFix"/>
<feColorMatrix in="SourceAlpha" type="matrix" values="0 0 0 0 0 0 0 0 0 0 0 0 0 0 0 0 0 0 127 0" result="hardAlpha"/>
<feOffset dy="0.9"/>
<feComposite in2="hardAlpha" operator="out"/>
<feColorMatrix type="matrix" values="0 0 0 0 0 0 0 0 0 0 0 0 0 0 0 0 0 0 0.25 0"/>
<feBlend mode="normal" in2="BackgroundImageFix" result="effect1_dropShadow_115_408"/>
<feBlend mode="normal" in="SourceGraphic" in2="effect1_dropShadow_115_408" result="shape"/>
</filter>
<linearGradient id="paint0_linear_115_408" x1="21" y1="0.166626" x2="21" y2="57.4583" gradientUnits="userSpaceOnUse">
<stop offset="0.251755" stop-color="#59B462"/>
<stop offset="1" stop-color="#72D293"/>
</linearGradient>
</defs>
</svg>
