<svg width="68" height="67" viewBox="0 0 68 67" fill="none" xmlns="http://www.w3.org/2000/svg">
<path d="M14.0584 48.369C13.5789 47.8715 13.6952 47.0561 14.2922 46.7114L17.9193 44.6173L16.1862 41.6149L12.5591 43.709C11.9607 44.0542 11.1978 43.7454 11.0067 43.0826C9.25383 36.9914 12.3484 30.3824 18.4203 27.9465L56.5953 12.6224C59.6716 11.3874 63.2415 12.6212 64.8989 15.4918C66.5735 18.3929 65.8445 22.0672 63.2321 24.1177L30.8733 49.5172C25.7031 53.5764 18.4364 52.9116 14.0582 48.3694L14.0584 48.369ZM16.6121 47.826C20.3512 50.8058 25.6942 50.8824 29.5619 47.8454L61.9207 22.4459C63.7057 21.0449 64.2023 18.5344 63.0589 16.5546C61.927 14.5941 59.4887 13.7513 57.3877 14.5946L19.2117 29.9184C14.6478 31.7494 12.0426 36.4151 12.7536 41.143L16.0434 39.2436C16.552 38.9503 17.2016 39.1244 17.495 39.6325L20.2909 44.4751C20.5839 44.9831 20.4101 45.6332 19.9019 45.9266L16.6121 47.826Z" fill="black"/>
<path d="M27.6533 50.2923L16.1378 30.347C15.8445 29.8389 16.0186 29.1889 16.5268 28.8954C17.0349 28.602 17.685 28.7762 17.9784 29.2844L29.4938 49.2297C29.7872 49.7378 29.613 50.3879 29.1049 50.6813C28.5967 50.9747 27.9471 50.8006 27.6533 50.2923Z" fill="black"/>
<path d="M27.1581 38.2498C27.1577 38.2496 27.1577 38.2496 27.1581 38.2498L26.3196 36.7974C25.2917 35.0176 25.9006 32.745 27.6808 31.7172L33.9758 28.0825C35.7516 27.0572 38.0303 27.6678 39.056 29.4437L39.8945 30.896C40.9224 32.6759 40.314 34.9482 38.5333 35.9763L32.2384 39.6106C30.4622 40.6358 28.1834 40.0256 27.1581 38.2498ZM28.9982 37.187C29.438 37.9481 30.4143 38.2097 31.1758 37.7705L37.4706 34.1361C38.2335 33.696 38.4945 32.722 38.054 31.959L37.2155 30.5067C36.7761 29.7457 35.7994 29.484 35.0383 29.9233L28.7434 33.558C27.9805 33.9982 27.7191 34.9721 28.16 35.7352L28.9982 37.187Z" fill="black"/>
<path d="M46.1095 26.3398C45.8161 25.8316 45.9903 25.1816 46.4984 24.8882L52.5518 21.3933C53.0603 21.1 53.71 21.2741 54.0034 21.7822C54.2968 22.2904 54.1226 22.9404 53.6144 23.2338L47.5611 26.7287C47.0524 27.0224 46.4029 26.8479 46.1095 26.3398Z" fill="black"/>
<path d="M5.13348 53.2261L2.33765 48.3836C2.04427 47.8754 2.21844 47.2254 2.7266 46.932L16.0437 39.2433C16.5522 38.9501 17.2019 39.1241 17.4953 39.6323L20.2911 44.4748C20.5841 44.9828 20.4103 45.633 19.9022 45.9264L6.58507 53.615C6.07693 53.9084 5.42691 53.7342 5.13348 53.2261ZM4.70931 48.241L6.4425 51.2429L17.9196 44.6167L16.1865 41.6143L4.70931 48.241Z" fill="black"/>
<path d="M33.9339 37.4055L30.439 31.3521C30.1456 30.844 30.3198 30.194 30.8279 29.9005C31.3361 29.6072 31.9861 29.7813 32.2795 30.2895L35.7745 36.3429C36.0678 36.851 35.8937 37.501 35.3855 37.7945C34.8773 38.0879 34.2277 37.9138 33.9339 37.4055Z" fill="black"/>
</svg>
