<svg width="34" height="34" viewBox="0 0 34 34" fill="none" xmlns="http://www.w3.org/2000/svg">
<path d="M5.88066 17.8905H21.4814C21.9793 17.8905 22.3818 17.4871 22.3818 16.9901C22.3818 16.4931 21.9793 16.0897 21.4814 16.0897H5.93649L9.19332 12.8328C9.54539 12.4817 9.54539 11.9108 9.19332 11.5597C8.84125 11.2085 8.27129 11.2085 7.92012 11.5597L2.60132 17.018L7.92012 22.4773C8.0966 22.6529 8.32621 22.7411 8.55672 22.7411C8.78723 22.7411 9.01684 22.6529 9.19332 22.4773C9.54539 22.1261 9.54539 21.5562 9.19332 21.2041L5.88066 17.8905ZM29.596 2.59323H14.2888C13.2938 2.59323 12.488 3.39911 12.488 4.39408V12.4979H14.3005V5.4926C14.3005 4.89111 14.7886 4.40308 15.39 4.40308H28.4669C29.0693 4.40308 29.5564 4.89111 29.5564 5.4926L29.5852 28.5182C29.5852 29.1197 29.0981 29.6077 28.4957 29.6077H15.3918C14.7904 29.6077 14.3023 29.1197 14.3023 28.5182V21.4733L12.4898 21.476V29.6068C12.4898 30.6018 13.2957 31.4077 14.2906 31.4077H29.5969C30.5919 31.4077 31.3987 30.6018 31.3987 29.6068V4.39498C31.3987 3.40001 30.5919 2.59413 29.5978 2.59413L29.596 2.59323Z" fill="#59B462" stroke="black" stroke-width="2.4678" stroke-linecap="round" stroke-linejoin="round"/>
<path d="M5.88066 17.8905H21.4814C21.9793 17.8905 22.3818 17.4871 22.3818 16.9901C22.3818 16.4931 21.9793 16.0897 21.4814 16.0897H5.93649L9.19332 12.8328C9.54539 12.4817 9.54539 11.9108 9.19332 11.5597C8.84125 11.2085 8.27129 11.2085 7.92012 11.5597L2.60132 17.018L7.92012 22.4773C8.0966 22.6529 8.32621 22.7411 8.55672 22.7411C8.78723 22.7411 9.01684 22.6529 9.19332 22.4773C9.54539 22.1261 9.54539 21.5562 9.19332 21.2041L5.88066 17.8905ZM29.596 2.59323H14.2888C13.2938 2.59323 12.488 3.39911 12.488 4.39408V12.4979H14.3005V5.4926C14.3005 4.89111 14.7886 4.40308 15.39 4.40308H28.4669C29.0693 4.40308 29.5564 4.89111 29.5564 5.4926L29.5852 28.5182C29.5852 29.1197 29.0981 29.6077 28.4957 29.6077H15.3918C14.7904 29.6077 14.3023 29.1197 14.3023 28.5182V21.4733L12.4898 21.476V29.6068C12.4898 30.6018 13.2957 31.4077 14.2906 31.4077H29.5969C30.5919 31.4077 31.3987 30.6018 31.3987 29.6068V4.39498C31.3987 3.40001 30.5919 2.59413 29.5978 2.59413L29.596 2.59323Z" fill="#59B462" stroke="#59B462" stroke-width="0.664407"/>
</svg>
