<svg width="67" height="22" viewBox="0 0 67 22" fill="none" xmlns="http://www.w3.org/2000/svg">
<path d="M17.6921 10.858C17.6921 16.6652 13.7643 21.216 9.09607 21.216C4.42786 21.216 0.5 16.6652 0.5 10.858C0.5 5.05086 4.42786 0.5 9.09607 0.5C13.7643 0.5 17.6921 5.05086 17.6921 10.858Z" fill="#D9D9D9" stroke="black"/>
<path d="M65.9013 10.858C65.9013 16.6652 61.9734 21.216 57.3052 21.216C52.637 21.216 48.7092 16.6652 48.7092 10.858C48.7092 5.05086 52.637 0.5 57.3052 0.5C61.9734 0.5 65.9013 5.05086 65.9013 10.858Z" fill="white" stroke="black"/>
<mask id="path-3-inside-1_101_70" fill="white">
<path d="M9.09607 0H57.3052V21.716H9.09607V0Z"/>
</mask>
<path d="M9.09607 0H57.3052V21.716H9.09607V0Z" fill="#D9D9D9"/>
<path d="M9.09607 1H57.3052V-1H9.09607V1ZM57.3052 20.716H9.09607V22.716H57.3052V20.716Z" fill="black" mask="url(#path-3-inside-1_101_70)"/>
<mask id="path-5-inside-2_101_70" fill="white">
<path d="M32.7458 1.0858H57.3052V20.6302H32.7458V1.0858Z"/>
</mask>
<path d="M32.7458 1.0858H57.3052V20.6302H32.7458V1.0858Z" fill="white"/>
<path d="M33.3458 20.6302V1.0858H32.1458V20.6302H33.3458Z" fill="black" mask="url(#path-5-inside-2_101_70)"/>
</svg>
