<svg width="27" height="27" viewBox="0 0 27 27" fill="none" xmlns="http://www.w3.org/2000/svg">
<path d="M13.4848 19.4493C12.0869 19.4493 10.9497 18.3121 10.9497 16.9142V15.9359C10.9497 14.5379 12.0869 13.4005 13.4848 13.4005C14.8828 13.4005 16.0203 14.5379 16.0203 15.9359V16.9145C16.0203 18.3121 14.8828 19.4493 13.4848 19.4493ZM13.4848 14.5859C12.7407 14.5859 12.1352 15.1914 12.1352 15.9359V16.9145C12.1352 17.6587 12.7407 18.2641 13.4848 18.2641C14.2293 18.2641 14.8348 17.6587 14.8348 16.9145V15.9359C14.8348 15.1914 14.2293 14.5859 13.4848 14.5859Z" fill="black"/>
<path d="M16.6281 23.5777H10.3415C10.0143 23.5777 9.74878 23.3121 9.74878 22.9849V21.3469C9.74878 19.6469 11.1319 18.2641 12.8316 18.2641H14.138C15.8379 18.2641 17.2208 19.6469 17.2208 21.3469V22.9849C17.2208 23.3121 16.9555 23.5777 16.6281 23.5777ZM10.9342 22.3922H16.0356V21.3469C16.0356 20.3007 15.1844 19.4496 14.1383 19.4496H12.8319C11.7857 19.4496 10.9345 20.3007 10.9345 21.3469L10.9342 22.3922Z" fill="black"/>
<path d="M20.7841 26.8214H6.1856C4.84483 26.8214 3.75391 25.7305 3.75391 24.3897V12.5658C3.75391 11.2251 4.84483 10.1342 6.1856 10.1342H20.7841C22.1248 10.1342 23.2157 11.2251 23.2157 12.5658V24.3897C23.2157 25.7305 22.1248 26.8214 20.7841 26.8214ZM6.1856 11.3196C5.49832 11.3196 4.93938 11.8786 4.93938 12.5658V24.3897C4.93938 25.0767 5.49832 25.6359 6.1856 25.6359H20.7841C21.471 25.6359 22.0303 25.0767 22.0303 24.3897V12.5658C22.0303 11.8786 21.471 11.3196 20.7841 11.3196H6.1856Z" fill="black"/>
<path d="M19.7041 11.3196C19.3769 11.3196 19.1113 11.0541 19.1113 10.7269V6.44885C19.1113 3.62862 16.8166 1.33385 13.9963 1.33385H12.9736C10.153 1.33385 7.85856 3.62862 7.85856 6.44885V10.7269C7.85856 11.0541 7.59302 11.3196 7.26583 11.3196C6.93864 11.3196 6.6731 11.0541 6.6731 10.7269V6.44885C6.6728 2.97483 9.49925 0.148376 12.9733 0.148376H13.996C17.4703 0.148376 20.2968 2.97483 20.2968 6.44885V10.7269C20.2968 11.0544 20.0316 11.3196 19.7041 11.3196Z" fill="black"/>
</svg>
