<svg width="27" height="27" viewBox="0 0 27 27" fill="none" xmlns="http://www.w3.org/2000/svg">
<path d="M13.4849 21.8614C9.07822 21.8614 4.66057 19.2344 0.353759 14.0533C0.0799156 13.7237 0.0799156 13.246 0.353759 12.9164C4.66057 7.73564 9.07822 5.10864 13.4849 5.10864C17.8913 5.10864 22.3092 7.73564 26.616 12.9164C26.8902 13.246 26.8902 13.7237 26.616 14.0533C22.3092 19.2341 17.8913 21.8614 13.4849 21.8614ZM2.20339 13.4849C5.9957 17.864 9.78861 20.0832 13.4849 20.0832C17.1815 20.0832 20.9741 17.8643 24.7664 13.4849C20.9741 9.10575 17.1815 6.88685 13.4849 6.88685C9.78861 6.88685 5.9957 9.10575 2.20339 13.4849Z" fill="black"/>
<path d="M13.4849 18.5231C10.7068 18.5231 8.44666 16.263 8.44666 13.4849C8.44666 10.7068 10.7068 8.44666 13.4849 8.44666C16.263 8.44666 18.5231 10.7068 18.5231 13.4849C18.5231 16.263 16.263 18.5231 13.4849 18.5231ZM13.4849 10.2249C11.6874 10.2249 10.2249 11.6874 10.2249 13.4849C10.2249 15.2824 11.6874 16.7449 13.4849 16.7449C15.2824 16.7449 16.7449 15.2824 16.7449 13.4849C16.7449 11.6874 15.2824 10.2249 13.4849 10.2249Z" fill="black"/>
</svg>
