<svg width="52" height="52" viewBox="0 0 52 52" fill="none" xmlns="http://www.w3.org/2000/svg">
<path d="M21.6666 13L26 23.8333M26 23.8333H32.5C33.6492 23.8333 34.7514 23.3768 35.5641 22.5641C36.3767 21.7515 36.8333 20.6493 36.8333 19.5V10.8333C36.8333 9.68406 36.3767 8.58186 35.5641 7.7692C34.7514 6.95655 33.6492 6.5 32.5 6.5H19.5C18.3507 6.5 17.2485 6.95655 16.4358 7.7692C15.6232 8.58186 15.1666 9.68406 15.1666 10.8333V19.5C15.1666 20.6493 15.6232 21.7515 16.4358 22.5641C17.2485 23.3768 18.3507 23.8333 19.5 23.8333H26Z" stroke="black" stroke-width="3.672" stroke-linecap="round" stroke-linejoin="round"/>
<path d="M36.8333 10.8333H41.1667C42.3159 10.8333 43.4181 11.2899 44.2308 12.1025C45.0435 12.9152 45.5 14.0174 45.5 15.1667V41.1667C45.5 42.3159 45.0435 43.4181 44.2308 44.2308C43.4181 45.0435 42.3159 45.5 41.1667 45.5H10.8333C9.68406 45.5 8.58186 45.0435 7.7692 44.2308C6.95655 43.4181 6.5 42.3159 6.5 41.1667V15.1667C6.5 14.0174 6.95655 12.9152 7.7692 12.1025C8.58186 11.2899 9.68406 10.8333 10.8333 10.8333H15.1667M21.6667 36.8333H30.3333" stroke="black" stroke-width="3.672" stroke-linecap="round" stroke-linejoin="round"/>
</svg>
